<svg width="332.864" xmlns="http://www.w3.org/2000/svg" height="105.642" fill="none"><g class="fills"><rect rx="0" ry="0" width="332.864" height="105.642" class="frame-background"/></g><g xml:space="preserve" style="fill: rgb(0, 0, 0);" class="frame-children"><path d="M80.858 104.643c-3.046 1.331-6.935 1.402-9.89-.216-1.68-.92-3.651-2.66-5.353-3.475-2.964 1.791-8.318 7.204-4.142 2.585 1.32-1.46 1.927-2.161 3.498-3.249-1.261-1.084-3.887-2.815-4.908-3.362-15.668 6.696-6.179 2.552-.943-.644-1.956-1.285-3.766-2.183-3.766-2.183s-.579.046-2.47 1.337c-2.04 1.392-9.15 4.705-13.195 6.058-3.523 1.179 3.759-1.772 5.866-2.827 3.043-1.523 4.095-2.249 6.174-3.328 2.009-1.042 2.947-1.711 2.947-1.711s-3.666-2.584-5.764-3.393c-1.639-.631-3.428-1.734-.734-.711 2.063.783 7.808 3.407 7.808 3.407s7.286-3.561 11.542-4.271c3.379-.564 11.211-1.046 11.556-.273-5.351.023-8.878.187-14.027 1.372-1.746.401-8.473 3.632-8.473 3.632l3.842 2.049s8.588-3.361 11.778-3.909c4.771-.82 5.046-2.765 7.994 1.337 1.574 2.646.554-3.335 1.95 1.722.439 1.59 5.982 2.007 8.853 1.261 3.24-.001 4.335-3.542 5.274-5.933 1.148-1.622 3.116-5.739-.797-5.578-2.12.046-2.968-3.384-.211-.664 1.7-1.23 7.191 1.743 4.207-1.814-1.246-2.003-2.124-3.959-3.351-5.945-.908-1.47-1.292-3.238-2.15-4.752-1.226-2.164-1.417-4.49-1.079-7.108.657-5.08 1.194-10.855-1.85-15.129 0 0-2.559 7.268-3.091 10.142-.455 2.876-.834 8.679-1.99 4.277.434-1.573-2.641-7.92-6.61-9.46-2.696-.926-7.554-3.27-6.298 1.117 1.049 3.665 2.761 6.847 5.703 9.475 1.966 1.755 3.756 2.503 1.882.418-.102-.113.359-1.13.284-1.309-.047-.112-.681 1.298-.868.691-.059-.061-1.092-2.708-.845-4.616.309-2.399 1.86-3.05 2.048-2.986.117.04.608 1.975.477 3.313-.146 1.481-.606 2.942-.528 2.902 1.431-.745 1.833 3.592 2.754 4.968 2.397 5.564-3.81-1.155-5.684-2.958-2.733-2.632-5.326-5.783-6.083-9.034-5.351-4.254 0-.404-.367-3.154-1.309-.034-7.801-1.674-4.73-1.635 4.739 1.476 6.425-1.211 14.566 2.808 4.589 2.727 5.799 9.942 4.721 3.709-.306-1.768-.416-3.067-.081-3.682.131.244.221 1.204.469 2.783.346 1.86.456.644 1.204-1.453a467.07 467.07 0 0 0 2.395-6.979l-1.885-2.487s-2.675 6.498-1.829 2.558c.594-.666 1.346-3.215 1.346-3.215l-2.903-3.682s.03.134.01.361c-.167 1.928-.209 2.656.003 5.028.081.944-.07.941-.225.015-.427-2.545-.342-5.756-.342-5.756s-7.954-8.016-12.332-12.176c-2.29-2.176-3.273-1.263.042-4.403 3.076-2.913 4.317-7.066 6.88-10.324 1.88-2.389 4.6-4.438-.177-3.863-4.33.521-5.612 1.055-8.756 1.953-3.509 1.003-7.69 1.815-6.977 6.425.72 4.652 1.08 9.342 4.796 12.568 1.215 1.054 2.471 2.423 4.234 3.829-4.082-2.126-7.478-6.104-9.245-10.151-1.101-3.251-1.665-6.736-2.365-10.152-.576-2.791-1.023-5.679-2.15-8.207-.713-3.753-5.748-6.496-8.509-2.662-3.188 3.014-5.68 6.667-7.338 10.412-.915 2.066-1.663 4.065-2.213 6.289a59.47 59.47 0 0 0-1.659 11.663c1.025.111 1.302-3.928 2.089-5.4.611-2.279 1.829-4.198 2.795-6.263 2.244-3.789 7.428-6.48 3.01-2.16-2.017 2.695-3.009 5.759-3.288 9.125-1.27 4.092 1.211 9.374-2.349 12.58.665 1.045 4.96-3.497 6.014-5.997 3.047-5.865-3.854 9.667-.592 5.45 2.419-3.483-1.288 4.286-3.44 4.544-2.771.332-5.455 1.419-8.17 2.16-2.822.848-5.349 2.587-7.511 4.875 1.749-2.649 3.607-4.565 5.791-5.523 1.897-1.071 4.523-1.659 5.223-4.207 2-4.955-1.535-.201-3.503 1.399-1.654.835-3.176 1.397-5.16 2.16-3.642 1.401-7.495 6.066-4.589 2.498 1.669-2.05 4.599-3.078 7.496-4.442 2.897-1.363 3.887-5.861 4.403-9.287.66-4.314.554-8.78 1.657-12.997.539-2.063 1.171-3.954 1.998-5.794 1.154-2.566 2.526-4.375 4.515-7.387 1.814-3.228-3.751 1.06-6.539 3.303-5.027 4.301-8 6.016-11.555 11.573-.586.916-.649 2.756-1.24 4.244-2.67 6.731-2.609 5.329-1.521 2.09 1.909-4.973-4.245.909-5.841 2.809-3.699 4.404-8.136 9.148-10.714 14.038-3.094 5.87-4.465 10.096-5.223 13.633-.934 4.36-1.477 9.017-1.195 13.558.245 3.93.976 7.807 2.118 11.47.313 1.003.86 3.58.86 3.58s-1.583-4.479-2.365-6.819C.684 77.305.125 73.153.021 69.075c-.116-4.519.234-9.185 1.501-13.461.457-1.543 1.559-6.464 4.515-12.095 1.451-2.762 10.74-14.188 16.439-20.672S38.785 7.849 43.662 4.642c4.877-3.207 3.894-2.309 5.805-3.456 2.604-1.562 6.361-1.835 8.698.744 2.669 2.946 3.646 6.46 4.265 10.234.546 3.222.785.694 5.527-.395 5.079-1.165 9.627-2.713 14.728-2.294 1.484.901-1.955 4.578-3.089 6.052-2.109 2.743-3.305 6.805-5.653 9.337-4.082 2.725-.171 4.647 2.319 6.869 2.747 2.452 6.279 6.231 8.354 8.291.972-5.267 2.111-7.613.949-2.545-.37 1.617-.403 2.966-.403 2.966l3.233 3.825s2.794-5.542 4.072-7.23c1.495-2.218 4.928-7.159 6.078-7.237-2.909 3.071-5.321 6.77-7.368 10.26-1.396 2.55-2.295 4.713-2.295 4.713l1.944 2.557s3.644-6.3 5.03-7.798c3.664-3.961 7.514-7.653 12.008-10.642-3.785 3.547-8.268 6.702-11.527 10.954-1.919 2.504-3.382 5.504-4.928 8.082 1.858 2.587 2.609 6.068 2.673 9.444.093 4.936-1.657 9.624.965 14.008.995 1.664 1.531 3.46 2.517 5.081 1.148 1.888 1.997 3.863 3.073 5.719 2.334 2.154-.307 2.747-1.075 4.535-.988 2.53-2.763 4.693-3.655 7.241-.678 3.482-4.403 3.267-6.235 5.286-2.31 2.548-5.179 3.811-8.814 5.4Zm-5.063-1.169c1.261.078 3.158-.436 4.332-.811 2.794-.891 5.18-2.301 7.566-4.284 2.245-2.421-5.173-.373-6.166-3.611-.363-1.186-.634-.071-.905-.224-1.243-.7-1.181-1.329-3.038-3.024-.682-1.172-7.321 1.213-11.02 2.463-2.775.937-5.301 2.034-5.301 2.034s3.53 2.188 5 2.767c1.312-.81 3.342-2.073 4.587-2.825 1.539-.929 3.781-1.773 5.493-2.331 1.301.573-2.287 1.266-2.907 2.096-1.439.826-4.971 2.425-6.072 3.879.611.469 1.416 1.077 2.342 1.559 1.143.595 1.528.778 2.644 1.42.866.498 2.627.842 3.445.892Zm4.633-17.406c-5.909-1.797-12.326-.962-18.49-1.296-3.885-.21-8.417-.372-12.635-.247-3.695-.385-7.597-.434-11.015-1.696-1.661-.14-5.304-1.942-2.757-.928 2.584.887 5.115-.154 7.487-1.016 2.66-.967 5.389-1.499 8.17-2.16 5.329-1.268 10.948-2.352 16.555-1.887 3.645.302 7.164.995 10.245 2.869-.054.961-3.183-1.042-4.617-1.262-5.594-.857-11.431-.877-17.023-.152-3.386.439-6.636 1.325-9.89 2.16-2.214.568-4.439 1.203-6.45 2.16 3.479 1.065 7.316 1.475 11.015 1.48 8.093.01 9.612.345 14.64.029 4.953-.31 10.128.003 14.765 1.514.907.153 1.228.989 0 .432Z" style="stroke-width: 1.28381; fill: rgb(255,255,255); fill-opacity: 1;" class="fills"/><path d="M268.431 12.821c-3.396 0-6.493.566-9.29 1.7-2.797 1.134-5.195 2.696-7.193 4.685-1.978 1.989-3.516 4.336-4.615 7.042-1.079 2.705-1.618 5.629-1.618 8.772 0 3.143.539 6.067 1.618 8.773 1.099 2.705 2.637 5.062 4.615 7.071 1.998 1.99 4.396 3.551 7.193 4.685 2.797 1.133 5.894 1.701 9.29 1.701 3.397 0 6.483-.568 9.26-1.701 2.798-1.134 5.185-2.695 7.163-4.685 1.978-2.009 3.506-4.366 4.585-7.071 1.099-2.706 1.649-5.63 1.649-8.773 0-3.123-.55-6.037-1.649-8.743-1.079-2.705-2.607-5.052-4.585-7.041-1.978-1.989-4.365-3.551-7.163-4.685-2.777-1.154-5.863-1.73-9.26-1.73Zm-150.204.477v43.474h8.931V31.768a36.744 36.744 0 0 0-.24-3.968l11.628 22.378c.36.696.839 1.223 1.439 1.581.619.358 1.318.538 2.098.538h1.378c.779 0 1.468-.18 2.068-.538.619-.358 1.108-.885 1.468-1.581l11.568-22.349a46.748 46.748 0 0 0-.18 3.939v25.004h8.931V13.298h-7.732c-.44 0-.829.01-1.169.03-.319.02-.609.079-.868.179-.26.099-.5.259-.72.478-.2.198-.399.486-.599.864l-11.209 21.962a54.45 54.45 0 0 0-1.168 2.417c-.38.815-.74 1.661-1.079 2.536-.34-.855-.7-1.691-1.079-2.506-.36-.816-.74-1.602-1.139-2.358l-11.238-22.051c-.2-.378-.41-.666-.63-.864a1.782 1.782 0 0 0-.689-.478 2.98 2.98 0 0 0-.899-.179c-.32-.02-.699-.03-1.139-.03Zm69.648 0-16.903 43.474h7.912c.839 0 1.548-.219 2.128-.656.579-.458.969-.965 1.169-1.522l2.577-7.579h16.603l2.577 7.579c.22.637.609 1.164 1.169 1.582.579.397 1.309.596 2.188.596h7.851l-16.902-43.474Zm23.016 0v7.996h12.287v35.478h10.129V21.294h12.288v-7.996Zm84.452 0v25.75c0 2.666.43 5.112 1.289 7.34.859 2.228 2.098 4.148 3.716 5.759 1.618 1.612 3.587 2.865 5.904 3.76 2.318.895 4.935 1.343 7.852 1.343 2.897 0 5.504-.448 7.822-1.343 2.317-.895 4.285-2.148 5.903-3.76 1.618-1.611 2.857-3.531 3.716-5.759.879-2.228 1.319-4.674 1.319-7.34v-25.75h-10.13v25.75c0 1.532-.199 2.905-.599 4.118-.379 1.194-.939 2.208-1.678 3.043a7.473 7.473 0 0 1-2.727 1.94c-1.059.438-2.268.656-3.626.656-1.359 0-2.578-.218-3.656-.656a7.544 7.544 0 0 1-2.698-1.94c-.739-.855-1.309-1.879-1.708-3.073-.38-1.213-.569-2.586-.569-4.118v-25.72Zm-26.912 7.847c1.938 0 3.666.319 5.185.955 1.518.637 2.797 1.552 3.836 2.745 1.059 1.194 1.868 2.656 2.427 4.387.56 1.711.84 3.64.84 5.788 0 2.168-.28 4.118-.84 5.849-.559 1.71-1.368 3.162-2.427 4.356-1.039 1.193-2.318 2.108-3.836 2.745-1.519.616-3.247.925-5.185.925-1.958 0-3.706-.309-5.244-.925a10.547 10.547 0 0 1-3.866-2.745c-1.039-1.194-1.838-2.646-2.398-4.356-.559-1.731-.839-3.681-.839-5.849 0-2.148.28-4.077.839-5.788.56-1.731 1.359-3.193 2.398-4.387a10.547 10.547 0 0 1 3.866-2.745c1.538-.636 3.286-.955 5.244-.955Zm-75.371 1.104a85.426 85.426 0 0 0 1.018 3.342c.36 1.015.67 1.9.929 2.656l4.016 11.905h-11.927l4.015-11.845c.3-.756.62-1.651.96-2.686.339-1.034.669-2.158.989-3.372Zm-31.026 49.705c-1.559 0-2.987.259-4.282.776-1.285.509-2.392 1.224-3.318 2.146a9.63 9.63 0 0 0-2.155 3.304c-.511 1.271-.766 2.673-.766 4.207 0 1.516.226 2.914.68 4.194.463 1.28 1.125 2.38 1.986 3.303a9.07 9.07 0 0 0 3.105 2.16c1.22.518 2.59.777 4.112.777 1.702 0 3.157-.273 4.368-.819a8.242 8.242 0 0 0 3.077-2.358l-1.504-1.623a.715.715 0 0 0-.538-.24.709.709 0 0 0-.341.084 1.149 1.149 0 0 0-.297.198 6.552 6.552 0 0 1-.95.72 5.227 5.227 0 0 1-1.007.466c-.35.122-.738.211-1.163.268-.416.056-.884.085-1.404.085-.87 0-1.682-.161-2.439-.481a5.736 5.736 0 0 1-1.971-1.411c-.557-.612-1.002-1.365-1.333-2.259-.321-.894-.481-1.915-.481-3.064 0-1.11.16-2.108.481-2.992.331-.895.785-1.652 1.361-2.273a5.93 5.93 0 0 1 2.085-1.427c.813-.339 1.702-.508 2.666-.508.823 0 1.499.085 2.028.254.539.17.983.353 1.333.551.35.197.638.381.865.551.227.169.448.254.666.254.208 0 .369-.043.482-.127.123-.085.222-.184.298-.297l1.276-1.765c-.813-.8-1.791-1.44-2.935-1.92-1.135-.489-2.463-.734-3.985-.734Zm61.853 0c-1.55 0-2.968.264-4.253.791a9.62 9.62 0 0 0-3.291 2.174c-.907.931-1.611 2.038-2.112 3.318-.501 1.27-.751 2.654-.751 4.15 0 1.497.25 2.885.751 4.165a9.866 9.866 0 0 0 2.112 3.304c.917.932 2.014 1.661 3.291 2.188 1.285.518 2.703.777 4.253.777 1.55 0 2.964-.259 4.24-.777 1.276-.527 2.368-1.256 3.276-2.188a9.866 9.866 0 0 0 2.112-3.304c.501-1.28.752-2.668.752-4.165 0-1.496-.251-2.88-.752-4.15-.501-1.28-1.205-2.382-2.112-3.304-.908-.932-2-1.661-3.276-2.188-1.276-.527-2.69-.791-4.24-.791Zm36.202 0c-1.551 0-2.969.264-4.255.791a9.622 9.622 0 0 0-3.289 2.174c-.908.931-1.612 2.038-2.113 3.318-.501 1.27-.752 2.654-.752 4.15 0 1.497.251 2.885.752 4.165a9.853 9.853 0 0 0 2.113 3.304c.917.932 2.013 1.661 3.289 2.188 1.286.518 2.704.777 4.255.777 1.55 0 2.963-.259 4.239-.777 1.276-.527 2.369-1.256 3.276-2.188a9.853 9.853 0 0 0 2.113-3.304c.501-1.28.751-2.668.751-4.165 0-1.496-.25-2.88-.751-4.15-.501-1.28-1.205-2.382-2.113-3.304-.907-.932-2-1.661-3.276-2.188-1.276-.527-2.689-.791-4.239-.791Zm22.858 0c-1.635 0-3.111.254-4.425.762-1.314.508-2.434 1.224-3.36 2.146-.917.923-1.626 2.024-2.127 3.304-.501 1.28-.751 2.687-.751 4.221 0 1.516.255 2.914.765 4.194.52 1.28 1.239 2.38 2.156 3.303a9.809 9.809 0 0 0 3.261 2.16c1.257.518 2.632.777 4.126.777.841 0 1.626-.047 2.354-.142a12.965 12.965 0 0 0 2.042-.395 10.487 10.487 0 0 0 1.801-.678 11.497 11.497 0 0 0 1.631-.988v-8.259h-6.821v2.146a.69.69 0 0 0 .213.508c.142.132.335.198.581.198h2.566v3.713a9.763 9.763 0 0 1-1.829.649c-.633.151-1.38.227-2.24.227-.974 0-1.872-.166-2.694-.495a6.076 6.076 0 0 1-2.127-1.454c-.595-.631-1.059-1.402-1.39-2.315-.331-.923-.496-1.972-.496-3.149 0-1.092.156-2.08.468-2.965.312-.884.756-1.642 1.333-2.273a5.82 5.82 0 0 1 2.084-1.454c.823-.339 1.74-.508 2.751-.508.624 0 1.173.042 1.645.127.482.085.912.193 1.29.325.388.132.738.287 1.05.466.321.179.633.357.936.536.236.151.467.226.694.226.36 0 .648-.174.865-.522l1.106-1.723c-.85-.79-1.89-1.43-3.119-1.919-1.22-.499-2.666-.749-4.339-.749Zm42.143 0c-1.069 0-2.019.165-2.85.494-.832.33-1.537.767-2.114 1.313a5.713 5.713 0 0 0-1.304 1.878 5.623 5.623 0 0 0-.44 2.174c0 .932.133 1.718.397 2.358.274.63.634 1.157 1.078 1.581.444.423.95.767 1.517 1.031a15 15 0 0 0 1.73.677c.586.188 1.163.363 1.73.523.568.16 1.073.357 1.518.592.444.226.798.509 1.063.848.274.339.411.776.411 1.313 0 .96-.297 1.699-.893 2.216-.595.508-1.437.763-2.524.763-.709 0-1.319-.095-1.83-.283a8.217 8.217 0 0 1-1.318-.649c-.369-.235-.69-.447-.965-.635-.274-.198-.529-.297-.765-.297a.925.925 0 0 0-.497.141 1.357 1.357 0 0 0-.368.325l-1.106 1.821c.397.405.846.772 1.347 1.101.51.33 1.054.612 1.63.847a9.91 9.91 0 0 0 1.83.537 9.429 9.429 0 0 0 1.928.198c1.135 0 2.142-.17 3.021-.509.879-.348 1.621-.819 2.226-1.412a5.93 5.93 0 0 0 1.389-2.103c.322-.81.483-1.675.483-2.598 0-.847-.138-1.567-.412-2.16a4.438 4.438 0 0 0-1.063-1.496 5.794 5.794 0 0 0-1.517-1.017 14.83 14.83 0 0 0-1.744-.706c-.586-.207-1.163-.4-1.73-.579a10.015 10.015 0 0 1-1.518-.607 3.443 3.443 0 0 1-1.077-.818c-.265-.32-.397-.72-.397-1.2 0-.377.066-.721.198-1.031a2.14 2.14 0 0 1 .596-.819c.274-.226.605-.4.992-.523.397-.131.861-.197 1.39-.197.586 0 1.092.075 1.517.226.435.141.813.301 1.135.48.321.179.6.343.836.494.237.141.449.212.638.212a.88.88 0 0 0 .482-.127c.142-.085.265-.231.369-.438l.936-1.793c-.718-.678-1.588-1.205-2.609-1.582-1.021-.376-2.136-.564-3.346-.564Zm-207.226.226v3.12h6.196v17.295h3.815V75.3h6.168v-3.12Zm18.604 0v20.415H149.4v-3.036h-9.089v-5.774h7.161v-2.923h-7.161v-5.661h9.089V72.18Zm35.251 0v20.415h3.843v-8.923h9.614v8.923h3.843V72.18h-3.843v8.782h-9.614V72.18Zm21.44 0v20.415h3.361V80.058c0-.245-.01-.513-.029-.805a13.672 13.672 0 0 0-.056-.903l10.72 13.596c.189.244.383.413.581.507.199.094.449.142.752.142h1.971V72.18h-3.361v12.41c0 .273.005.569.014.889.019.311.048.631.086.96l-10.763-13.652a2.399 2.399 0 0 0-.284-.311.825.825 0 0 0-.269-.183.726.726 0 0 0-.298-.085 2.642 2.642 0 0 0-.425-.028h-.001Zm44.114 0v20.415h12.024V89.46h-8.209V72.18Zm57.174 0v20.415h3.828V72.18Zm8.437 0v20.415h12.932v-3.036h-9.09v-5.774h7.161v-2.923h-7.161v-5.661h9.09V72.18Zm-78.997 3.007c1.002 0 1.901.165 2.695.494a5.517 5.517 0 0 1 2.042 1.426c.557.622.983 1.379 1.276 2.273.302.885.453 1.887.453 3.007s-.151 2.127-.453 3.021c-.293.885-.719 1.638-1.276 2.259a5.59 5.59 0 0 1-2.042 1.412c-.794.33-1.693.494-2.695.494-1.002 0-1.905-.164-2.708-.494a5.712 5.712 0 0 1-2.056-1.412c-.558-.621-.988-1.374-1.29-2.259-.303-.894-.454-1.901-.454-3.021 0-1.12.151-2.122.454-3.007.302-.894.732-1.651 1.29-2.273a5.635 5.635 0 0 1 2.056-1.426c.803-.329 1.706-.494 2.708-.494Zm36.202 0c1.002 0 1.9.165 2.694.494a5.497 5.497 0 0 1 2.041 1.426c.558.622.984 1.379 1.277 2.273.302.885.454 1.887.454 3.007s-.152 2.127-.454 3.021c-.293.885-.719 1.638-1.277 2.259a5.57 5.57 0 0 1-2.041 1.412c-.794.33-1.692.494-2.694.494-1.003 0-1.905-.164-2.709-.494a5.72 5.72 0 0 1-2.056-1.412c-.558-.621-.988-1.374-1.29-2.259-.303-.894-.454-1.901-.454-3.021 0-1.12.151-2.122.454-3.007.302-.894.732-1.651 1.29-2.273a5.643 5.643 0 0 1 2.056-1.426c.804-.329 1.706-.494 2.709-.494Z" style="font-weight: 900; font-size: 47.5666px; font-family: Lato; stroke-width: 0.55742; fill: rgb(255,255,255);" class="fills"/></g></svg>