<svg width="108" xmlns="http://www.w3.org/2000/svg" height="156" fill="none"><g class="fills"><rect rx="0" ry="0" width="108" height="156" class="frame-background"/></g><g xml:space="preserve" style="fill: rgb(0, 0, 0);" class="frame-children"><path d="M80.994 104.643c-3.046 1.331-6.934 1.402-9.89-.216-1.68-.92-3.651-2.66-5.353-3.475-2.964 1.791-8.318 7.204-4.142 2.585 1.32-1.46 1.927-2.161 3.498-3.249-1.261-1.084-3.887-2.815-4.908-3.362-15.668 6.696-6.179 2.552-.943-.644-1.956-1.285-3.766-2.183-3.766-2.183s-.579.046-2.47 1.337c-2.04 1.392-9.15 4.705-13.195 6.058-3.523 1.179 3.759-1.772 5.866-2.827 3.043-1.523 4.095-2.249 6.174-3.328 2.009-1.042 2.947-1.711 2.947-1.711s-3.666-2.584-5.764-3.393c-1.639-.631-3.428-1.734-.734-.711 2.063.783 7.808 3.407 7.808 3.407s7.286-3.561 11.542-4.271c3.38-.564 11.211-1.046 11.556-.273-5.351.023-8.878.187-14.027 1.372-1.746.401-8.472 3.632-8.472 3.632l3.841 2.049s8.588-3.361 11.778-3.909c4.771-.82 5.046-2.765 7.994 1.337 1.575 2.646.554-3.335 1.95 1.722.439 1.59 5.982 2.007 8.853 1.261 3.24-.001 4.335-3.542 5.274-5.933 1.148-1.622 3.117-5.739-.797-5.578-2.12.046-2.968-3.384-.211-.664 1.7-1.23 7.192 1.743 4.208-1.814-1.247-2.003-2.125-3.959-3.352-5.945-.908-1.47-1.292-3.238-2.15-4.752-1.226-2.164-1.417-4.49-1.079-7.108.657-5.08 1.194-10.855-1.85-15.129 0 0-2.559 7.268-3.091 10.142-.455 2.876-.834 8.679-1.99 4.277.434-1.573-2.641-7.92-6.61-9.46-2.696-.926-7.554-3.27-6.298 1.117 1.049 3.665 2.761 6.847 5.703 9.475 1.966 1.755 3.757 2.503 1.882.418-.102-.113.359-1.13.284-1.309-.047-.112-.681 1.298-.868.691-.059-.061-1.092-2.708-.845-4.616.309-2.399 1.86-3.05 2.048-2.986.117.04.608 1.975.477 3.313-.146 1.481-.606 2.942-.528 2.902 1.432-.745 1.833 3.592 2.754 4.968 2.397 5.564-3.81-1.155-5.684-2.958-2.733-2.632-5.326-5.783-6.083-9.034-5.351-4.254 0-.404-.367-3.154-1.309-.034-7.801-1.674-4.73-1.635 4.739 1.476 6.425-1.211 14.566 2.808 4.589 2.727 5.799 9.942 4.721 3.709-.306-1.768-.416-3.067-.081-3.682.131.244.221 1.204.469 2.783.346 1.86.456.644 1.204-1.453 1.004-2.817 2.395-6.979 2.395-6.979l-1.885-2.487s-2.675 6.498-1.829 2.558c.594-.666 1.346-3.215 1.346-3.215l-2.903-3.682s.03.134.01.361c-.167 1.928-.209 2.656.003 5.028.081.944-.07.941-.225.015-.426-2.545-.342-5.756-.342-5.756s-7.953-8.016-12.332-12.176c-2.29-2.176-3.273-1.263.042-4.403 3.076-2.913 4.317-7.066 6.88-10.324 1.881-2.389 4.6-4.438-.177-3.863-4.33.521-5.611 1.055-8.756 1.953-3.509 1.003-7.69 1.815-6.977 6.425.72 4.652 1.08 9.342 4.796 12.568 1.215 1.054 2.471 2.423 4.234 3.829-4.082-2.126-7.477-6.104-9.245-10.151-1.101-3.251-1.665-6.736-2.365-10.152-.576-2.791-1.023-5.679-2.15-8.207-.713-3.753-5.748-6.496-8.509-2.662-3.188 3.014-5.68 6.667-7.338 10.412-.915 2.066-1.663 4.065-2.213 6.289a59.394 59.394 0 0 0-1.658 11.663c1.024.111 1.301-3.928 2.088-5.4.611-2.279 1.829-4.198 2.795-6.263 2.244-3.789 7.428-6.48 3.01-2.16-2.017 2.695-3.009 5.759-3.288 9.125-1.27 4.092 1.212 9.374-2.349 12.58.665 1.045 4.96-3.497 6.014-5.997 3.047-5.865-3.854 9.667-.592 5.45 2.419-3.483-1.288 4.286-3.44 4.544-2.77.332-5.454 1.419-8.17 2.16-2.822.848-5.349 2.587-7.511 4.875 1.749-2.649 3.607-4.565 5.791-5.523 1.897-1.071 4.523-1.659 5.223-4.207 2-4.955-1.535-.201-3.503 1.399-1.654.835-3.176 1.397-5.16 2.16-3.642 1.401-7.495 6.066-4.589 2.498 1.669-2.05 4.599-3.078 7.496-4.442 2.897-1.363 3.887-5.861 4.403-9.287.66-4.314.554-8.78 1.657-12.997.54-2.063 1.171-3.954 1.998-5.794 1.154-2.566 2.526-4.375 4.515-7.387 1.815-3.228-3.75 1.06-6.539 3.303-5.027 4.301-8 6.016-11.555 11.573-.586.916-.649 2.756-1.24 4.244-2.67 6.731-2.609 5.329-1.521 2.09 1.909-4.973-4.245.909-5.841 2.809-3.699 4.404-8.136 9.148-10.714 14.038-3.094 5.87-4.465 10.096-5.223 13.633-.934 4.36-1.477 9.017-1.195 13.558.245 3.93.976 7.807 2.118 11.47.313 1.003.86 3.58.86 3.58s-1.583-4.479-2.365-6.819C.82 77.305.261 73.153.157 69.075c-.116-4.519.234-9.185 1.501-13.461.458-1.543 1.559-6.464 4.515-12.095 1.451-2.762 10.74-14.188 16.439-20.672S38.921 7.849 43.798 4.642c4.877-3.207 3.894-2.309 5.805-3.456 2.604-1.562 6.361-1.835 8.698.744 2.669 2.946 3.646 6.46 4.265 10.234.546 3.222.785.694 5.527-.395 5.079-1.165 9.628-2.713 14.728-2.294 1.484.901-1.955 4.578-3.089 6.052-2.109 2.743-3.305 6.805-5.653 9.337-4.082 2.725-.171 4.647 2.319 6.869 2.747 2.452 6.279 6.231 8.354 8.291.972-5.267 2.111-7.613.949-2.545a16.657 16.657 0 0 0-.403 2.966l3.233 3.825s2.794-5.542 4.072-7.23c1.496-2.218 4.928-7.159 6.078-7.237-2.909 3.071-5.321 6.77-7.368 10.26-1.396 2.55-2.294 4.713-2.294 4.713l1.943 2.557s3.644-6.3 5.03-7.798c3.664-3.961 7.514-7.653 12.008-10.642-3.785 3.547-8.267 6.702-11.527 10.954-1.919 2.504-3.382 5.504-4.928 8.082 1.858 2.587 2.61 6.068 2.673 9.444.093 4.936-1.656 9.624.965 14.008.995 1.664 1.531 3.46 2.517 5.081 1.148 1.888 1.997 3.863 3.073 5.719 2.334 2.154-.307 2.747-1.075 4.535-.988 2.53-2.762 4.693-3.655 7.241-.678 3.482-4.403 3.267-6.235 5.286-2.31 2.548-5.178 3.811-8.814 5.4Zm-5.062-1.169c1.26.078 3.157-.436 4.332-.811 2.793-.891 5.179-2.301 7.566-4.284 2.244-2.421-5.174-.373-6.167-3.611-.363-1.186-.634-.071-.905-.224-1.243-.7-1.181-1.329-3.038-3.024-.682-1.172-7.321 1.213-11.02 2.463-2.775.937-5.301 2.034-5.301 2.034s3.53 2.188 5 2.767c1.312-.81 3.342-2.073 4.587-2.825 1.539-.929 3.781-1.773 5.493-2.331 1.301.573-2.287 1.266-2.907 2.096-1.439.826-4.971 2.425-6.072 3.879.611.469 1.416 1.077 2.342 1.559 1.144.595 1.528.778 2.645 1.42.866.498 2.626.842 3.445.892Zm4.632-17.406c-5.909-1.797-12.326-.962-18.49-1.296-3.885-.21-8.417-.372-12.635-.247-3.695-.385-7.597-.434-11.015-1.696-1.661-.14-5.304-1.942-2.757-.928 2.584.887 5.115-.154 7.487-1.016 2.66-.967 5.389-1.499 8.17-2.16 5.329-1.268 10.948-2.352 16.555-1.887 3.645.302 7.164.995 10.245 2.869-.054.961-3.183-1.042-4.617-1.262-5.594-.857-11.431-.877-17.023-.152-3.386.439-6.635 1.325-9.89 2.16-2.214.568-4.439 1.203-6.45 2.16 3.479 1.065 7.316 1.475 11.015 1.48 8.093.01 9.612.345 14.641.029 4.952-.31 10.127.003 14.764 1.514.908.153 1.228.989 0 .432Z" style="stroke-width: 1.28381; fill: rgb(57, 57, 57); fill-opacity: 1;" class="fills"/><path d="M75.632 115.454c-1.706 0-3.261.287-4.666.862-1.405.574-2.61 1.366-3.613 2.374a10.729 10.729 0 0 0-2.319 3.569c-.542 1.371-.812 2.853-.812 4.446 0 1.593.27 3.075.812 4.446a10.896 10.896 0 0 0 2.319 3.584c1.003 1.009 2.208 1.8 3.613 2.374 1.405.575 2.96.863 4.666.863 1.707 0 3.257-.288 4.652-.863 1.405-.574 2.604-1.365 3.598-2.374a10.715 10.715 0 0 0 2.303-3.584c.552-1.371.828-2.853.828-4.446 0-1.583-.276-3.06-.828-4.431a10.552 10.552 0 0 0-2.303-3.569c-.994-1.008-2.193-1.8-3.598-2.374-1.395-.585-2.945-.877-4.652-.877Zm-75.449.242v22.033h4.486v-12.672a18.783 18.783 0 0 0-.121-2.011l5.841 11.341c.181.353.422.62.723.802.311.181.662.272 1.053.272h.693c.391 0 .737-.091 1.038-.272.312-.182.557-.449.738-.802l5.811-11.326a23.98 23.98 0 0 0-.09 1.996v12.672h4.486v-22.033h-3.884c-.221 0-.417.005-.587.015-.161.01-.306.04-.437.09-.13.051-.251.132-.361.243-.101.1-.201.246-.301.438l-5.63 11.131a26.38 26.38 0 0 0-.587 1.225c-.191.413-.372.841-.542 1.285a24.716 24.716 0 0 0-.542-1.27 18.627 18.627 0 0 0-.573-1.195l-5.644-11.176a1.568 1.568 0 0 0-.317-.438.903.903 0 0 0-.346-.243c-.13-.05-.281-.08-.452-.09a9.354 9.354 0 0 0-.572-.015Zm34.985 0-8.491 22.033h3.974c.422 0 .778-.11 1.069-.332.291-.232.487-.489.587-.771l1.295-3.841h8.34l1.294 3.841c.111.322.307.589.588.801.291.202.657.302 1.099.302h3.944l-8.491-22.033Zm11.561 0v4.052h6.172v17.981h5.088v-17.981h6.172v-4.052Zm42.422 0v13.051c0 1.35.215 2.591.647 3.72a8.273 8.273 0 0 0 1.867 2.919c.813.816 1.801 1.451 2.965 1.905 1.165.454 2.479.681 3.945.681 1.455 0 2.764-.227 3.929-.681 1.164-.454 2.152-1.089 2.965-1.905a8.273 8.273 0 0 0 1.867-2.919c.441-1.129.662-2.37.662-3.72v-13.051h-5.088v13.051c0 .776-.1 1.472-.301 2.087a4.24 4.24 0 0 1-.843 1.542 3.754 3.754 0 0 1-1.37.983c-.532.222-1.139.333-1.821.333-.683 0-1.295-.111-1.837-.333a3.784 3.784 0 0 1-1.355-.983 4.582 4.582 0 0 1-.858-1.557c-.191-.615-.286-1.311-.286-2.088v-13.035Zm-13.519 3.977c.974 0 1.842.161 2.605.484a5.17 5.17 0 0 1 1.927 1.391c.531.605.938 1.346 1.219 2.223.281.867.422 1.845.422 2.934 0 1.099-.141 2.087-.422 2.964-.281.867-.688 1.603-1.219 2.208a5.158 5.158 0 0 1-1.927 1.391c-.763.313-1.631.469-2.605.469-.983 0-1.861-.156-2.634-.469a5.285 5.285 0 0 1-1.942-1.391c-.522-.605-.923-1.341-1.204-2.208-.281-.877-.422-1.865-.422-2.964 0-1.089.141-2.067.422-2.934.281-.877.682-1.618 1.204-2.223a5.297 5.297 0 0 1 1.942-1.391c.773-.323 1.651-.484 2.634-.484Zm-37.86.559c.171.605.341 1.17.512 1.694.18.515.336.963.466 1.346l2.018 6.034h-5.992l2.017-6.004c.151-.383.312-.836.482-1.361.171-.524.336-1.094.497-1.709Zm-15.584 25.192c-.784 0-1.501.131-2.151.394a4.855 4.855 0 0 0-1.667 1.087 4.88 4.88 0 0 0-1.083 1.675 5.72 5.72 0 0 0-.385 2.132c0 .768.114 1.477.342 2.125.233.649.565 1.207.997 1.674.433.468.953.833 1.56 1.095.613.263 1.301.394 2.066.394.855 0 1.586-.138 2.194-.415a4.152 4.152 0 0 0 1.546-1.195l-.756-.823a.359.359 0 0 0-.441-.079.633.633 0 0 0-.15.1 3.121 3.121 0 0 1-.477.365 2.544 2.544 0 0 1-.506.236 2.86 2.86 0 0 1-.584.136 5.16 5.16 0 0 1-.705.044 3.09 3.09 0 0 1-1.225-.244 2.882 2.882 0 0 1-.99-.715 3.483 3.483 0 0 1-.67-1.145c-.161-.453-.242-.971-.242-1.553 0-.563.081-1.068.242-1.517.167-.453.394-.837.684-1.152a2.972 2.972 0 0 1 1.047-.723 3.436 3.436 0 0 1 1.339-.257c.414 0 .753.043 1.019.128a3.535 3.535 0 0 1 1.104.559.557.557 0 0 0 .335.129.396.396 0 0 0 .242-.065.559.559 0 0 0 .149-.15l.641-.895a4.634 4.634 0 0 0-1.474-.973c-.57-.248-1.237-.372-2.001-.372Zm31.069 0c-.779 0-1.491.134-2.136.401a4.818 4.818 0 0 0-1.653 1.102 4.977 4.977 0 0 0-1.061 1.681 5.723 5.723 0 0 0-.378 2.104c0 .758.126 1.462.378 2.111a4.985 4.985 0 0 0 1.061 1.674c.46.473 1.012.842 1.653 1.109.645.263 1.357.394 2.136.394.779 0 1.489-.131 2.13-.394a4.825 4.825 0 0 0 1.645-1.109c.456-.472.81-1.03 1.062-1.674a5.804 5.804 0 0 0 .377-2.111c0-.759-.126-1.46-.377-2.104a4.84 4.84 0 0 0-2.707-2.783c-.641-.267-1.351-.401-2.13-.401Zm18.185 0c-.779 0-1.491.134-2.137.401a4.828 4.828 0 0 0-1.653 1.102 5.008 5.008 0 0 0-1.061 1.681 5.743 5.743 0 0 0-.377 2.104c0 .758.126 1.462.377 2.111a5.017 5.017 0 0 0 1.061 1.674 4.917 4.917 0 0 0 1.653 1.109c.646.263 1.358.394 2.137.394.778 0 1.488-.131 2.129-.394a4.839 4.839 0 0 0 1.646-1.109 5.001 5.001 0 0 0 1.061-1.674 5.783 5.783 0 0 0 .378-2.111c0-.759-.126-1.46-.378-2.104a4.913 4.913 0 0 0-1.061-1.674 4.853 4.853 0 0 0-1.646-1.109c-.641-.267-1.351-.401-2.129-.401Zm11.482 0c-.822 0-1.563.129-2.223.386a4.84 4.84 0 0 0-1.688 1.088 4.874 4.874 0 0 0-1.068 1.675 5.854 5.854 0 0 0-.378 2.139c0 .768.129 1.477.385 2.125a5.015 5.015 0 0 0 1.083 1.674c.46.468 1.006.833 1.638 1.095a5.335 5.335 0 0 0 2.073.394c.422 0 .816-.024 1.182-.072a6.59 6.59 0 0 0 1.026-.2 5.194 5.194 0 0 0 1.724-.844v-4.186h-3.427v1.087c0 .101.036.186.107.258a.41.41 0 0 0 .292.1h1.289v1.882a4.879 4.879 0 0 1-.918.329 4.896 4.896 0 0 1-1.126.115c-.489 0-.94-.084-1.353-.251a3.043 3.043 0 0 1-1.068-.737 3.372 3.372 0 0 1-.699-1.173c-.166-.468-.249-1-.249-1.596 0-.553.079-1.054.235-1.503.157-.448.38-.832.67-1.152a2.922 2.922 0 0 1 1.047-.737 3.582 3.582 0 0 1 1.382-.257c.313 0 .589.021.826.064.242.043.458.098.648.165.195.066.371.145.527.236.162.091.318.181.47.272a.647.647 0 0 0 .349.114c.181 0 .325-.088.435-.264l.555-.874a4.969 4.969 0 0 0-1.567-.972c-.612-.253-1.339-.38-2.179-.38Zm21.169 0c-.537 0-1.014.084-1.432.251a3.26 3.26 0 0 0-1.061.665 2.854 2.854 0 0 0-.877 2.054c0 .472.067.87.2 1.195.138.319.318.586.541.801.224.215.478.389.762.522.285.134.575.248.87.344.294.095.584.184.869.265.285.081.539.181.762.3.223.114.401.258.534.429.138.172.206.394.206.666 0 .486-.149.861-.448 1.123-.299.258-.722.387-1.268.387-.356 0-.663-.048-.919-.144a3.964 3.964 0 0 1-.662-.329 15.222 15.222 0 0 1-.485-.322c-.138-.1-.266-.15-.385-.15a.457.457 0 0 0-.249.072.672.672 0 0 0-.185.164l-.556.923c.2.205.425.392.677.559.257.166.529.309.819.429.295.119.601.21.919.272.318.066.641.1.969.1.57 0 1.076-.086 1.517-.258a3.314 3.314 0 0 0 1.118-.715c.309-.306.541-.661.698-1.067.162-.41.243-.848.243-1.316 0-.429-.069-.794-.207-1.095a2.257 2.257 0 0 0-.534-.758 2.897 2.897 0 0 0-.762-.515 7.219 7.219 0 0 0-.876-.358 28.81 28.81 0 0 0-.869-.294 5.006 5.006 0 0 1-.763-.307 1.754 1.754 0 0 1-.541-.415.927.927 0 0 1-.199-.608c0-.191.033-.365.099-.523.067-.162.167-.3.3-.415.137-.114.303-.203.498-.265.2-.067.432-.1.698-.1.295 0 .549.038.762.115.219.071.409.152.57.243.161.091.302.174.42.25a.636.636 0 0 0 .321.108.437.437 0 0 0 .242-.065.519.519 0 0 0 .185-.222l.47-.908a3.775 3.775 0 0 0-1.31-.802 4.78 4.78 0 0 0-1.681-.286ZM0 145.539v1.581h3.113v8.765h1.916v-8.765h3.098v-1.581Zm9.345 0v10.346h6.496v-1.538h-4.566v-2.927h3.597v-1.481h-3.597v-2.869h4.566v-1.531Zm17.707 0v10.346h1.931v-4.522h4.829v4.522h1.93v-10.346h-1.93v4.45h-4.829v-4.45Zm10.77 0v10.346h1.688v-6.354c0-.124-.005-.26-.014-.407a6.992 6.992 0 0 0-.029-.458l5.385 6.89c.095.124.193.21.292.258.1.047.226.071.378.071h.99v-10.346h-1.688v6.289c0 .139.002.289.007.451.009.157.024.32.043.487l-5.407-6.92a1.16 1.16 0 0 0-.142-.157.41.41 0 0 0-.135-.093.37.37 0 0 0-.15-.043 1.276 1.276 0 0 0-.213-.014h-.001Zm22.159 0v10.346h6.04v-1.588h-4.124v-8.758Zm28.719 0v10.346h1.924v-10.346Zm4.238 0v10.346h6.496v-1.538h-4.565v-2.927h3.597v-1.481h-3.597v-2.869h4.565v-1.531Zm-39.681 1.524c.503 0 .955.083 1.354.25a2.77 2.77 0 0 1 1.025.723c.281.315.494.699.641 1.152.152.448.228.956.228 1.524 0 .568-.076 1.078-.228 1.531-.147.449-.36.83-.641 1.145-.28.31-.622.549-1.025.716a3.48 3.48 0 0 1-1.354.25c-.503 0-.957-.083-1.36-.25a2.876 2.876 0 0 1-1.033-.716 3.283 3.283 0 0 1-.648-1.145 4.796 4.796 0 0 1-.228-1.531c0-.568.076-1.076.228-1.524a3.28 3.28 0 0 1 .648-1.152 2.832 2.832 0 0 1 1.033-.723c.403-.167.857-.25 1.36-.25Zm18.185 0c.503 0 .954.083 1.353.25.404.167.745.408 1.026.723.28.315.494.699.641 1.152.152.448.228.956.228 1.524 0 .568-.076 1.078-.228 1.531-.147.449-.361.83-.641 1.145-.281.31-.622.549-1.026.716-.399.167-.85.25-1.353.25a3.53 3.53 0 0 1-1.361-.25 2.885 2.885 0 0 1-1.033-.716 3.283 3.283 0 0 1-.648-1.145 4.796 4.796 0 0 1-.228-1.531c0-.568.076-1.076.228-1.524a3.28 3.28 0 0 1 .648-1.152 2.84 2.84 0 0 1 1.033-.723 3.53 3.53 0 0 1 1.361-.25Z" style="font-weight: 900; font-size: 47.5666px; font-family: Lato; stroke-width: 0.55742; fill: rgb(57, 57, 57);" class="fills"/></g></svg>