<?xml version="1.0" standalone="no"?>
<!DOCTYPE svg PUBLIC "-//W3C//DTD SVG 20010904//EN"
 "http://www.w3.org/TR/2001/REC-SVG-20010904/DTD/svg10.dtd">
<svg version="1.0" xmlns="http://www.w3.org/2000/svg"
 width="700.000000pt" height="700.000000pt" viewBox="0 0 700.000000 700.000000"
 preserveAspectRatio="xMidYMid meet">
<metadata>
Created by potrace 1.14, written by Peter Selinger 2001-2017
</metadata>
<g transform="translate(0.000000,700.000000) scale(0.100000,-0.100000)"
fill="#000000" stroke="none">
<path d="M3380 6904 c-187 -37 -674 -353 -1135 -735 -138 -115 -249 -211 -369
-319 -117 -105 -383 -376 -472 -480 -49 -58 -94 -109 -100 -115 -46 -43 -559
-676 -729 -900 -131 -172 -177 -246 -240 -379 -128 -273 -270 -728 -301 -966
-3 -25 -7 -56 -10 -70 -19 -110 -26 -524 -12 -705 7 -86 22 -202 33 -255 3
-14 8 -38 10 -55 19 -109 188 -643 211 -664 3 -3 4 3 1 14 -3 11 -15 56 -26
100 -11 44 -36 139 -55 210 -30 110 -46 188 -70 335 -4 24 -9 63 -25 212 -8
75 -6 378 3 478 7 75 34 278 41 300 2 8 6 31 9 50 61 386 295 941 539 1275
134 183 516 634 639 753 83 81 199 169 234 178 53 13 56 -14 15 -143 -16 -51
-32 -107 -36 -125 -5 -30 -5 -32 9 -14 8 10 33 62 56 115 23 53 48 110 55 126
23 52 44 119 60 193 19 92 35 129 87 205 132 191 243 301 575 574 338 278 529
412 568 397 22 -9 3 -47 -124 -239 -62 -93 -137 -219 -166 -280 -73 -153 -160
-424 -180 -562 -18 -129 -26 -203 -40 -373 -3 -41 -8 -91 -10 -110 -2 -19 -7
-60 -10 -90 -12 -109 -16 -136 -36 -235 -53 -266 -140 -426 -262 -483 -362
-171 -413 -202 -497 -303 -28 -33 -50 -62 -50 -65 0 -3 30 20 66 50 119 102
211 157 349 211 262 101 260 100 398 234 94 91 131 121 137 111 4 -7 7 -18 5
-24 -67 -220 -84 -240 -313 -354 -181 -91 -249 -143 -353 -272 -74 -92 -76
-108 -6 -43 100 93 233 176 352 221 92 35 443 135 524 149 86 16 97 20 142 61
67 60 211 283 194 300 -3 3 -6 3 -8 1 -38 -50 -81 -99 -88 -99 -21 0 -5 67 62
263 39 115 69 210 67 212 -2 2 -24 -35 -48 -82 -85 -166 -294 -393 -362 -393
-24 0 -24 3 17 56 76 99 88 157 87 429 -1 218 2 242 44 475 36 199 122 381
234 499 51 54 75 89 66 98 -14 14 -86 -38 -178 -128 -95 -95 -98 -99 -185
-275 -93 -189 -135 -300 -179 -478 -18 -74 -35 -117 -51 -135 l-24 -26 6 110
c3 61 7 121 9 135 2 14 8 52 11 85 12 98 13 103 20 147 11 62 14 78 19 96 3 9
8 37 11 62 4 24 9 48 12 53 3 4 7 22 10 39 9 59 65 233 108 339 67 164 136
295 224 425 93 138 117 168 228 284 44 47 90 96 101 110 60 77 208 99 312 48
60 -30 121 -84 155 -138 36 -57 109 -272 139 -405 15 -68 103 -504 112 -555 3
-14 7 -33 10 -42 3 -10 8 -30 10 -45 20 -114 72 -272 116 -353 95 -180 257
-368 413 -480 75 -53 155 -101 114 -68 -40 32 -248 228 -295 276 -101 106
-167 249 -209 455 -14 69 -27 138 -29 154 -2 15 -9 66 -16 112 -40 268 37 344
480 470 232 65 317 86 395 97 28 3 59 8 70 10 46 9 185 16 208 10 56 -14 39
-56 -73 -186 -77 -90 -141 -186 -229 -345 -112 -200 -176 -290 -290 -407 -111
-114 -121 -126 -121 -145 0 -6 35 -40 78 -75 42 -36 253 -238 467 -450 l390
-386 3 -108 c2 -60 4 -122 6 -139 15 -136 19 -161 25 -168 5 -4 6 9 4 30 -6
62 -6 334 0 340 3 3 12 -1 19 -8 16 -17 151 -189 161 -206 8 -12 -33 -135 -63
-186 -22 -39 -35 -107 -21 -107 6 0 37 54 69 120 l58 121 59 -78 59 -78 -95
-280 c-100 -299 -110 -325 -121 -325 -7 0 -9 9 -29 143 -7 42 -16 77 -20 77
-15 0 -10 -124 11 -245 11 -64 20 -122 20 -128 0 -13 -26 27 -68 103 -69 125
-192 254 -287 300 -227 109 -356 139 -623 141 -121 1 -205 6 -237 15 -97 26
-146 8 -60 -22 54 -18 233 -62 270 -66 21 -2 31 -9 33 -23 4 -37 -13 -49 -72
-48 -31 0 -56 -2 -56 -6 1 -3 36 -35 80 -70 62 -51 80 -71 85 -98 12 -65 105
-229 189 -334 91 -113 396 -421 489 -493 117 -90 140 -65 75 82 -11 26 -37 98
-58 160 -43 128 -61 159 -94 168 l-23 5 17 92 c17 95 18 150 6 224 -4 24 -6
44 -4 46 1 2 -3 11 -11 20 -12 15 -16 15 -40 1 -70 -42 -107 -141 -98 -262 6
-73 40 -207 57 -226 4 -4 16 4 25 18 22 34 27 29 15 -13 -8 -28 -6 -38 15 -66
81 -106 -58 -30 -195 107 -132 133 -232 299 -296 495 -42 127 -44 180 -9 213
22 21 31 22 93 17 63 -5 277 -74 354 -113 161 -83 377 -410 378 -573 0 -39 33
-121 48 -121 12 0 29 43 38 95 4 22 8 47 9 55 3 14 19 129 31 209 14 100 189
671 205 671 17 0 98 -184 120 -271 19 -81 23 -121 23 -284 1 -185 -2 -235 -24
-400 -15 -109 -10 -257 12 -333 9 -35 34 -98 54 -140 20 -42 54 -119 75 -171
21 -51 58 -128 82 -170 25 -42 61 -107 82 -146 62 -114 117 -207 147 -249 41
-58 34 -92 -19 -82 -93 18 -197 24 -248 15 -34 -6 -44 -3 -74 22 -36 29 -71
38 -71 18 0 -6 8 -24 17 -40 20 -34 77 -59 134 -59 139 0 161 -116 58 -307
-21 -39 -48 -95 -59 -124 -59 -150 -116 -234 -185 -275 -65 -37 -220 -62 -370
-58 -137 4 -163 7 -231 30 -77 26 -98 46 -113 106 -8 29 -19 64 -27 78 l-12
25 -11 -28 c-6 -16 -11 -33 -11 -38 0 -22 -22 -5 -58 44 -86 115 -139 157
-199 157 -22 0 -84 -13 -139 -30 -96 -28 -127 -36 -189 -46 -84 -14 -424 -126
-686 -227 -76 -29 -52 -35 -217 54 -51 28 -90 55 -87 60 4 5 10 9 14 9 5 0 55
22 112 49 248 116 348 156 458 181 84 19 257 47 336 55 22 3 65 7 95 10 47 5
287 14 399 15 45 0 33 11 -21 18 -82 11 -443 1 -513 -13 -11 -3 -44 -7 -73
-10 -81 -8 -132 -16 -192 -32 -30 -8 -62 -16 -70 -18 -64 -14 -414 -153 -539
-214 -25 -11 -50 -21 -57 -21 -12 0 -75 27 -194 82 -111 52 -344 146 -375 153
-29 6 -28 5 10 -19 22 -14 43 -26 47 -26 9 0 163 -74 205 -98 71 -42 213 -137
213 -143 0 -7 -94 -62 -235 -139 -33 -18 -109 -60 -170 -93 -89 -49 -262 -134
-380 -187 -84 -38 -146 -64 -178 -77 -21 -9 -36 -18 -33 -20 2 -3 44 10 93 28
244 89 623 265 778 361 50 31 109 65 133 77 l44 22 97 -55 c54 -31 109 -64
121 -74 l23 -19 -99 -55 c-91 -51 -173 -95 -328 -177 -94 -50 -53 -37 139 45
99 41 219 91 267 111 l86 36 49 -28 c61 -35 263 -178 263 -186 0 -4 -24 -25
-53 -47 -47 -35 -166 -158 -243 -252 -37 -44 -19 -32 91 60 50 41 125 101 168
134 75 57 78 58 108 45 18 -7 85 -50 150 -95 64 -46 141 -96 171 -113 143 -80
318 -99 533 -57 6 1 15 4 20 7 6 4 22 9 38 13 58 14 362 161 443 215 33 22
102 78 152 125 74 68 112 94 195 134 173 84 193 106 258 277 13 33 52 112 87
175 36 63 86 158 113 210 26 52 69 118 94 145 67 74 71 114 16 177 -15 18 -61
96 -101 173 -40 77 -92 174 -115 215 -24 41 -62 118 -86 170 -24 52 -61 126
-81 164 -84 152 -105 295 -85 551 18 210 20 254 21 325 1 225 -44 425 -128
573 l-42 74 74 129 c41 71 86 149 100 174 129 230 289 407 637 705 219 187
255 228 100 111 -179 -133 -219 -170 -451 -401 -172 -171 -200 -204 -286 -335
-52 -80 -121 -189 -153 -242 -32 -54 -60 -98 -64 -98 -4 0 -15 13 -24 30 -10
16 -23 35 -30 42 -7 7 -25 30 -41 50 l-28 37 28 63 c112 251 303 557 498 793
27 33 52 62 55 65 3 3 15 16 26 29 l20 24 -20 -11 c-55 -29 -171 -168 -322
-385 -96 -140 -154 -236 -257 -429 -31 -60 -60 -108 -64 -108 -4 0 -21 20 -39
43 -17 23 -40 51 -50 62 -10 11 -40 46 -67 78 l-49 57 7 68 c3 37 8 76 10 87
3 11 12 56 21 100 9 44 18 89 20 100 4 19 4 19 -10 1 -11 -15 -38 -117 -80
-303 -4 -18 -43 16 -258 231 -138 139 -306 298 -372 352 -212 176 -229 238
-94 354 70 62 123 140 225 336 99 191 125 232 245 385 131 168 172 257 134
289 -17 14 -159 18 -280 7 -94 -9 -281 -46 -450 -88 -66 -17 -127 -32 -136
-34 -129 -26 -236 -63 -338 -118 -62 -33 -75 -37 -87 -25 -8 7 -27 77 -43 154
-16 77 -37 167 -47 200 -62 213 -200 421 -321 482 -88 45 -188 57 -293 36z
m1685 -5958 c22 -23 60 -65 84 -93 52 -61 86 -82 103 -65 19 19 26 15 38 -23
25 -75 104 -115 269 -135 93 -12 147 -26 156 -41 27 -43 -215 -216 -416 -298
-238 -96 -406 -111 -564 -49 -91 36 -355 191 -355 209 0 28 93 93 260 184 69
37 132 74 141 81 8 8 50 29 93 48 86 37 105 51 90 66 -25 25 -289 -93 -509
-230 -174 -108 -147 -108 -328 -5 -171 97 -169 84 -26 139 218 85 642 225 733
242 155 29 177 26 231 -30z"/>
<path d="M4117 1935 c-1 -1 -45 -5 -97 -9 -52 -3 -113 -9 -135 -12 -41 -5
-303 -50 -341 -58 -251 -52 -614 -143 -724 -181 -289 -101 -386 -115 -525 -71
-11 3 -1 -3 23 -14 23 -12 77 -30 120 -41 216 -57 261 -68 311 -74 30 -4 62
-8 71 -10 9 -2 54 -6 101 -10 46 -4 93 -9 104 -12 11 -2 130 -6 265 -9 135 -2
317 -6 405 -9 88 -2 243 -7 345 -10 102 -3 320 -8 485 -10 165 -3 320 -7 344
-10 124 -12 226 -32 349 -66 42 -12 64 -7 46 10 -8 8 -121 45 -173 56 -94 22
-231 45 -296 51 -44 3 -93 8 -110 10 -16 2 -113 3 -215 2 -649 -7 -1408 2
-1479 16 -14 3 -47 8 -75 11 -28 3 -60 8 -71 10 -11 3 -32 7 -48 9 -15 3 -35
7 -45 10 -9 3 -28 7 -42 10 -14 2 -45 10 -68 16 -40 13 -41 14 -19 25 36 18
153 61 247 89 77 23 460 121 513 132 97 19 241 44 282 48 28 4 68 8 90 11 218
26 642 26 845 0 107 -13 129 -17 175 -27 27 -6 74 -22 105 -36 93 -42 156 -61
171 -52 17 11 17 12 -66 53 -64 32 -197 82 -250 93 -109 24 -213 41 -310 50
-51 5 -303 12 -308 9z"/>
</g>
</svg>
